<svg version="1.1" id="Layer_1" xmlns="http://www.w3.org/2000/svg" xmlns:xlink="http://www.w3.org/1999/xlink" x="0px" y="0px"
	 width="100%" viewBox="0 0 192 158" enable-background="new 0 0 192 158" xml:space="preserve">
<path fill="#010101" opacity="1.000000" stroke="none" 
	d="
M119.000000,159.000000 
	C79.361328,159.000000 40.222652,159.000000 1.041990,159.000000 
	C1.041990,106.398994 1.041990,53.797951 1.041990,1.098453 
	C64.888489,1.098453 128.777176,1.098453 192.832932,1.098453 
	C192.832932,53.666237 192.832932,106.333069 192.832932,159.000000 
	C168.464951,159.000000 143.982468,159.000000 119.000000,159.000000 
M14.269316,133.560959 
	C14.823059,133.787918 15.376802,134.014877 16.409523,134.765518 
	C18.645073,135.474747 20.880621,136.183975 23.503407,136.993454 
	C23.503407,136.993454 23.887829,136.882904 24.676914,137.235764 
	C25.937233,137.496155 27.186483,137.846924 28.459595,138.002884 
	C40.427284,139.468857 50.736351,134.072174 61.064995,129.525436 
	C70.951782,125.173203 80.642082,120.162918 88.515778,111.943565 
	C88.515778,111.943565 88.845055,111.811897 89.572609,111.929108 
	C94.729904,107.289543 99.887192,102.649979 104.992508,97.995605 
	C104.992508,97.995605 105.009621,98.046867 105.551872,97.843613 
	C106.208267,97.140991 106.864670,96.438362 107.700142,95.678520 
	C107.700142,95.678520 107.753738,95.498337 108.276001,95.120033 
	C111.963997,91.121330 115.651993,87.122620 118.787506,83.722939 
	C117.903191,81.610146 117.324722,80.228065 116.971909,78.274902 
	C116.935394,77.566353 116.658951,76.760986 116.899704,76.164314 
	C119.154724,70.575500 121.662498,65.083961 123.776176,59.443989 
	C126.641403,51.798664 129.224274,44.047516 132.261902,35.647526 
	C132.545761,34.442421 132.829605,33.237312 133.051315,32.018356 
	C133.051315,32.018356 133.056717,32.081783 133.726212,31.794537 
	C134.535431,30.138725 135.344650,28.482914 136.547821,26.021013 
	C134.266907,26.186544 132.904587,26.285410 131.108398,26.385731 
	C130.819183,26.389576 130.529984,26.394991 129.290039,26.159512 
	C117.111725,26.441584 104.933403,26.723654 91.970421,27.043171 
	C82.163696,27.879614 75.380997,33.270020 72.070198,42.118221 
	C65.681076,59.193287 60.008747,76.535866 53.982952,93.747826 
	C49.661156,106.092529 45.247845,118.405190 40.084126,130.869751 
	C36.370411,131.897125 32.656693,132.924500 28.996622,133.997620 
	C28.996622,133.997620 28.955662,133.940384 28.195618,133.966232 
	C27.183058,133.917435 26.170500,133.868622 24.655525,133.222214 
	C23.361513,133.151047 22.067501,133.079865 20.455778,132.572891 
	C19.960640,132.138702 19.465500,131.704514 18.355396,130.957718 
	C16.323103,129.954224 14.290810,128.950729 11.893263,127.344978 
	C9.863281,126.231476 7.833300,125.117981 5.803319,124.004486 
	C5.212904,124.713470 4.622489,125.422455 4.032074,126.131439 
	C6.008031,127.496986 7.983988,128.862534 10.129644,130.626846 
	C10.326112,130.867111 10.579512,130.989441 11.243784,131.521393 
	C12.154329,132.022842 13.064875,132.524307 13.998485,133.000610 
	C13.998485,133.000610 13.980072,133.027161 14.269316,133.560959 
M62.018311,150.029190 
	C62.018311,150.029190 62.043461,150.087708 62.974052,150.045105 
	C70.980560,149.966827 78.987061,149.888535 87.923355,149.943771 
	C98.620071,149.614120 109.316780,149.284470 120.942139,149.070541 
	C128.957352,148.991486 136.972565,148.912445 145.919571,148.955627 
	C153.642487,148.910446 161.365387,148.865280 170.004959,148.945877 
	C175.339096,148.909088 180.673218,148.872299 186.832748,148.959366 
	C187.914490,148.187607 189.980972,147.335709 189.925705,146.656494 
	C189.369980,139.827835 191.473587,132.188843 184.585480,126.944458 
	C184.585480,126.944458 184.462509,126.977531 184.080505,126.433311 
	C183.670364,126.305908 183.260239,126.178505 182.693085,125.895493 
	C182.693085,125.895493 182.482666,125.963257 181.910248,125.312103 
	C173.027679,124.819008 164.145126,124.325912 154.482056,123.515358 
	C151.301727,123.473778 148.121414,123.432198 144.081543,123.326332 
	C141.790329,123.337311 139.499115,123.348289 136.264954,123.116493 
	C128.496063,123.132721 120.727165,123.148956 112.083351,123.045410 
	C107.995049,122.809570 103.906738,122.573738 98.626205,122.269127 
	C105.636566,115.006668 111.876816,108.542007 118.723389,101.760605 
	C124.101440,95.006424 129.840103,88.504417 134.778427,81.442726 
	C143.590225,68.842026 150.403778,55.112247 155.324875,40.546890 
	C156.738800,36.361958 159.256317,31.989365 156.917206,27.094032 
	C148.832397,54.929241 134.398499,79.072670 115.202736,101.165123 
	C108.481621,107.777184 101.760513,114.389244 94.400993,121.257637 
	C91.457504,123.775986 88.514015,126.294334 84.937050,128.987915 
	C79.518005,132.957642 74.098961,136.927383 68.035927,141.062363 
	C65.336227,142.653366 62.636517,144.244370 59.200195,145.948563 
	C49.854759,150.468719 40.056877,152.201462 29.363317,149.984192 
	C32.910892,157.032730 47.157345,157.231400 60.579880,151.021210 
	C61.080391,150.687668 61.580902,150.354126 62.018311,150.029190 
M125.944389,71.110451 
	C125.196739,72.519157 124.449089,73.927872 123.701439,75.336578 
	C138.031418,60.110809 146.129837,41.925339 150.319336,21.855835 
	C143.347076,38.599823 137.051392,55.674297 125.944389,71.110451 
z"/>
<path fill="#D8251D" opacity="1.000000" stroke="none" 
	d="
M130.240829,26.401978 
	C130.529984,26.394991 130.819183,26.389576 131.498535,26.719582 
	C132.278015,28.729549 132.667374,30.405666 133.056717,32.081783 
	C133.056717,32.081783 133.051315,32.018356 132.803360,32.163811 
	C132.346359,33.653431 132.137299,34.997593 131.928253,36.341759 
	C129.224274,44.047516 126.641403,51.798664 123.776176,59.443989 
	C121.662498,65.083961 119.154724,70.575500 116.899704,76.164314 
	C116.658951,76.760986 116.935394,77.566353 116.606262,78.712090 
	C115.548744,79.809982 114.856880,80.470688 113.852600,80.938782 
	C110.784943,79.111801 110.952469,76.909821 112.072365,74.307236 
	C112.752831,72.725845 112.984039,70.951149 113.417068,69.263283 
	C112.650078,69.062057 111.883095,68.860825 111.116104,68.659592 
	C109.203568,74.617943 107.291023,80.576294 105.066162,87.507645 
	C108.739494,85.661369 111.416519,84.315849 114.085510,83.348083 
	C112.842766,85.730232 111.517967,87.685936 110.400139,89.753532 
	C109.399490,91.604393 108.626930,93.578568 107.753738,95.498337 
	C107.753738,95.498337 107.700142,95.678520 107.287560,95.712357 
	C106.253197,96.513084 105.631409,97.279976 105.009621,98.046867 
	C105.009621,98.046867 104.992508,97.995605 104.633423,97.997543 
	C99.352859,101.636971 94.389633,105.220840 89.562515,108.979515 
	C88.955963,109.451813 89.066673,110.845253 88.845047,111.811897 
	C88.845055,111.811897 88.515778,111.943565 87.949066,111.980881 
	C85.724236,112.690842 83.948059,113.165688 82.429436,114.072060 
	C77.232056,117.174088 72.327232,120.832161 66.935219,123.526459 
	C59.276592,127.353340 51.442593,130.965652 43.373444,133.780823 
	C38.892105,135.344284 33.776604,138.410904 28.955662,133.940384 
	C28.955662,133.940384 28.996622,133.997620 29.387190,133.982285 
	C33.476959,132.888687 37.176159,131.810410 40.875359,130.732147 
	C45.247845,118.405190 49.661156,106.092529 53.982952,93.747826 
	C60.008747,76.535866 65.681076,59.193287 72.070198,42.118221 
	C75.380997,33.270020 82.163696,27.879614 92.852127,27.113197 
	C98.516121,27.189079 103.300827,27.293890 108.080162,27.177881 
	C115.468979,26.998529 122.854126,26.668249 130.240829,26.401978 
z"/>
<path fill="#3AA534" opacity="1.000000" stroke="none" 
	d="
M85.570526,128.812683 
	C88.514015,126.294334 91.457504,123.775986 94.931252,121.297058 
	C97.679329,123.154617 99.897148,124.972755 102.039627,127.228577 
	C100.475685,133.921661 100.535423,140.091919 102.578354,146.219498 
	C98.123840,146.552750 94.070587,146.797562 89.853973,146.704895 
	C89.263756,143.656647 89.004433,140.905716 88.366814,138.245468 
	C87.603485,135.060760 86.517036,131.953491 85.570526,128.812683 
z"/>
<path fill="#6A9E4D" opacity="1.000000" stroke="none" 
	d="
M115.812500,100.901413 
	C134.398499,79.072670 148.832397,54.929241 156.917206,27.094032 
	C159.256317,31.989365 156.738800,36.361958 155.324875,40.546890 
	C150.403778,55.112247 143.590225,68.842026 134.778427,81.442726 
	C129.840103,88.504417 124.101440,95.006424 118.131088,101.773972 
	C116.963356,101.492027 116.387932,101.196724 115.812500,100.901413 
z"/>
<path fill="#32A038" opacity="1.000000" stroke="none" 
	d="
M85.253784,128.900299 
	C86.517036,131.953491 87.603485,135.060760 88.366814,138.245468 
	C89.004433,140.905716 89.263756,143.656647 89.606117,146.868927 
	C88.676933,147.889359 87.832237,148.408264 86.520782,148.910797 
	C79.698608,148.852921 73.343201,148.811432 67.292831,148.616425 
	C70.553238,147.203629 73.941612,146.360062 73.846436,141.484619 
	C72.099968,141.286026 70.389946,141.091568 68.679916,140.897110 
	C74.098961,136.927383 79.518005,132.957642 85.253784,128.900299 
z"/>
<path fill="#BC322D" opacity="1.000000" stroke="none" 
	d="
M28.575640,133.953308 
	C33.776604,138.410904 38.892105,135.344284 43.373444,133.780823 
	C51.442593,130.965652 59.276592,127.353340 66.935219,123.526459 
	C72.327232,120.832161 77.232056,117.174088 82.429436,114.072060 
	C83.948059,113.165688 85.724236,112.690842 87.773369,112.004738 
	C80.642082,120.162918 70.951782,125.173203 61.064995,129.525436 
	C50.736351,134.072174 40.427284,139.468857 28.459595,138.002884 
	C27.186483,137.846924 25.937233,137.496155 24.417332,136.806030 
	C24.369520,135.661880 24.581291,134.947449 24.884289,134.129730 
	C24.975513,134.026443 25.157940,133.819824 25.157940,133.819824 
	C26.170500,133.868622 27.183058,133.917435 28.575640,133.953308 
z"/>
<path fill="#7EBE2C" opacity="1.000000" stroke="none" 
	d="
M182.482666,125.963257 
	C182.482666,125.963257 182.693085,125.895493 183.030396,126.147537 
	C183.732651,126.592224 184.097580,126.784882 184.462509,126.977531 
	C184.462509,126.977531 184.585480,126.944458 184.705536,127.419220 
	C185.775391,134.843140 188.937469,141.667435 186.007355,148.835510 
	C180.673218,148.872299 175.339096,148.909088 169.512207,148.544724 
	C168.955963,147.466904 168.892471,146.790222 169.310303,146.088074 
	C174.042740,146.062607 178.293854,146.062607 181.159637,146.062607 
	C180.479538,141.057144 179.894211,137.212952 179.455673,133.352081 
	C179.181259,130.936142 179.127838,128.495102 179.412506,126.053299 
	C180.727402,126.015266 181.605042,125.989265 182.482666,125.963257 
z"/>
<path fill="#9E4140" opacity="1.000000" stroke="none" 
	d="
M126.075348,70.800827 
	C137.051392,55.674297 143.347076,38.599823 150.319336,21.855835 
	C146.129837,41.925339 138.031418,60.110809 123.701439,75.336578 
	C124.449089,73.927872 125.196739,72.519157 126.075348,70.800827 
z"/>
<path fill="#258946" opacity="1.000000" stroke="none" 
	d="
M59.956635,151.152008 
	C47.157345,157.231400 32.910892,157.032730 29.363317,149.984192 
	C40.056877,152.201462 49.854759,150.468719 59.729027,146.157593 
	C60.826466,147.229675 61.395073,148.092728 61.949066,149.241211 
	C61.970795,149.713669 62.007130,149.900696 62.043461,150.087708 
	C62.043461,150.087708 62.018311,150.029190 61.736137,150.054199 
	C60.954853,150.436813 60.455742,150.794403 59.956635,151.152008 
z"/>
<path fill="#539846" opacity="1.000000" stroke="none" 
	d="
M115.507614,101.033264 
	C116.387932,101.196724 116.963356,101.492027 117.827927,101.932343 
	C111.876816,108.542007 105.636566,115.006668 98.626205,122.269127 
	C103.906738,122.573738 107.995049,122.809570 112.542068,123.328300 
	C113.000778,123.611191 113.038872,124.057526 112.703613,124.214851 
	C108.950554,125.178421 105.532761,125.984665 102.114975,126.790901 
	C99.897148,124.972755 97.679329,123.154617 95.250458,121.168892 
	C101.760513,114.389244 108.481621,107.777184 115.507614,101.033264 
z"/>
<path fill="#51984B" opacity="1.000000" stroke="none" 
	d="
M86.987534,148.927170 
	C87.832237,148.408264 88.676933,147.889359 89.769485,147.206406 
	C94.070587,146.797562 98.123840,146.552750 102.953384,146.371567 
	C107.480530,146.615768 111.231384,146.796341 115.354675,146.993561 
	C117.149399,147.296890 118.571693,147.583588 119.998032,148.141418 
	C120.005898,148.593323 120.009697,148.774078 120.013496,148.954819 
	C109.316780,149.284470 98.620071,149.614120 87.452957,149.656281 
	C86.982552,149.368790 86.987534,148.927170 86.987534,148.927170 
z"/>
<path fill="#78B043" opacity="1.000000" stroke="none" 
	d="
M182.196457,125.637680 
	C181.605042,125.989265 180.727402,126.015266 178.961151,126.030716 
	C175.045837,126.003914 172.019135,125.987679 168.527130,125.970230 
	C163.375778,126.002617 158.689743,126.036217 153.557495,126.050690 
	C148.087875,125.711121 143.064468,125.390678 137.891785,124.940773 
	C137.545380,124.640221 137.356476,124.460457 137.206482,124.044632 
	C137.237137,123.817238 137.207901,123.359261 137.207901,123.359261 
	C139.499115,123.348289 141.790329,123.337311 144.886398,123.525192 
	C148.881683,123.760307 152.072128,123.796555 155.262558,123.832809 
	C164.145126,124.325912 173.027679,124.819008 182.196457,125.637680 
z"/>
<path fill="#259C3B" opacity="1.000000" stroke="none" 
	d="
M61.963684,148.955795 
	C61.395073,148.092728 60.826466,147.229675 60.097336,146.100983 
	C62.636517,144.244370 65.336227,142.653366 68.357925,140.979736 
	C70.389946,141.091568 72.099968,141.286026 73.846436,141.484619 
	C73.941612,146.360062 70.553238,147.203629 66.875916,148.660812 
	C64.757210,148.891083 63.360447,148.923447 61.963684,148.955795 
z"/>
<path fill="#8AB550" opacity="1.000000" stroke="none" 
	d="
M186.420044,148.897446 
	C188.937469,141.667435 185.775391,134.843140 184.722168,127.480682 
	C191.473587,132.188843 189.369980,139.827835 189.925705,146.656494 
	C189.980972,147.335709 187.914490,148.187607 186.420044,148.897446 
z"/>
<path fill="#BC322D" opacity="1.000000" stroke="none" 
	d="
M89.208832,111.870499 
	C89.066673,110.845253 88.955963,109.451813 89.562515,108.979515 
	C94.389633,105.220840 99.352859,101.636971 104.659409,98.004944 
	C99.887192,102.649979 94.729904,107.289543 89.208832,111.870499 
z"/>
<path fill="#BC322D" opacity="1.000000" stroke="none" 
	d="
M108.014870,95.309189 
	C108.626930,93.578568 109.399490,91.604393 110.400139,89.753532 
	C111.517967,87.685936 112.842766,85.730232 114.096161,83.041260 
	C114.131561,81.948250 114.148285,81.539825 114.165009,81.131393 
	C114.856880,80.470688 115.548744,79.809982 116.493439,78.997635 
	C117.324722,80.228065 117.903191,81.610146 118.787506,83.722939 
	C115.651993,87.122620 111.963997,91.121330 108.014870,95.309189 
z"/>
<path fill="#BC322D" opacity="1.000000" stroke="none" 
	d="
M12.258515,127.947235 
	C14.290810,128.950729 16.323103,129.954224 18.812843,131.322098 
	C19.771357,132.127213 20.272427,132.567947 20.773495,133.008682 
	C22.067501,133.079865 23.361513,133.151047 24.906733,133.521027 
	C25.157940,133.819824 24.975513,134.026443 24.636395,134.248535 
	C23.903574,135.278137 23.509871,136.085678 23.116169,136.893204 
	C20.880621,136.183975 18.645073,135.474747 15.965307,134.295761 
	C15.007417,133.559723 14.493744,133.293442 13.980071,133.027161 
	C13.980072,133.027161 13.998485,133.000610 13.827683,132.732361 
	C12.734536,131.974014 11.812189,131.483917 10.889843,130.993835 
	C10.579512,130.989441 10.326112,130.867111 10.190117,130.124847 
	C10.919899,129.064316 11.589207,128.505768 12.258515,127.947235 
z"/>
<path fill="#7AAB53" opacity="1.000000" stroke="none" 
	d="
M168.828979,146.113556 
	C168.892471,146.790222 168.955963,147.466904 169.053879,148.481842 
	C161.365387,148.865280 153.642487,148.910446 145.455872,148.645813 
	C144.992157,148.336014 144.993958,147.838623 145.444702,147.848297 
	C149.302460,147.319916 152.709473,146.781830 156.522964,146.231430 
	C160.616379,146.180084 164.303284,146.141052 168.199829,146.110229 
	C168.409439,146.118439 168.828979,146.113556 168.828979,146.113556 
z"/>
<path fill="#69A649" opacity="1.000000" stroke="none" 
	d="
M144.993958,147.838623 
	C144.993958,147.838623 144.992157,148.336014 144.989960,148.584717 
	C136.972565,148.912445 128.957352,148.991486 120.477814,149.012680 
	C120.009697,148.774078 120.005898,148.593323 120.429085,148.154037 
	C122.575920,147.866791 124.295769,147.838089 126.417328,147.766312 
	C130.214111,147.456131 133.609177,147.189011 137.424835,146.934204 
	C140.228256,147.243881 142.611115,147.541260 144.993958,147.838623 
z"/>
<path fill="#703431" opacity="1.000000" stroke="none" 
	d="
M129.765442,26.280745 
	C122.854126,26.668249 115.468979,26.998529 108.080162,27.177881 
	C103.300827,27.293890 98.516121,27.189079 93.244461,27.094475 
	C104.933403,26.723654 117.111725,26.441584 129.765442,26.280745 
z"/>
<path fill="#65A26D" opacity="1.000000" stroke="none" 
	d="
M61.949070,149.241211 
	C63.360447,148.923447 64.757210,148.891083 66.570877,148.814331 
	C73.343201,148.811432 79.698608,148.852921 86.520782,148.910797 
	C86.987534,148.927170 86.982552,149.368790 86.988060,149.589523 
	C78.987061,149.888535 70.980560,149.966827 62.508759,150.066406 
	C62.007130,149.900696 61.970795,149.713669 61.949070,149.241211 
z"/>
<path fill="#507B40" opacity="1.000000" stroke="none" 
	d="
M136.736420,123.237877 
	C137.207901,123.359261 137.237137,123.817238 136.726456,123.997841 
	C131.804047,124.199196 127.392311,124.219948 122.661484,124.202194 
	C121.916115,124.119637 121.489845,124.075577 120.635399,124.013062 
	C118.779182,124.019478 117.351143,124.044357 115.562073,124.069763 
	C114.480316,124.066040 113.759598,124.061783 113.038872,124.057526 
	C113.038872,124.057526 113.000778,123.611191 112.979523,123.388191 
	C120.727165,123.148956 128.496063,123.132721 136.736420,123.237877 
z"/>
<path fill="#A33836" opacity="1.000000" stroke="none" 
	d="
M12.075890,127.646103 
	C11.589207,128.505768 10.919899,129.064316 10.105268,129.925476 
	C7.983988,128.862534 6.008031,127.496986 4.032074,126.131439 
	C4.622489,125.422455 5.212904,124.713470 5.803319,124.004486 
	C7.833300,125.117981 9.863281,126.231476 12.075890,127.646103 
z"/>
<path fill="#BC322D" opacity="1.000000" stroke="none" 
	d="
M40.479744,130.800949 
	C37.176159,131.810410 33.476959,132.888687 29.360367,133.959412 
	C32.656693,132.924500 36.370411,131.897125 40.479744,130.800949 
z"/>
<path fill="#703431" opacity="1.000000" stroke="none" 
	d="
M133.391464,31.938160 
	C132.667374,30.405666 132.278015,28.729549 131.715454,26.718855 
	C132.904587,26.285410 134.266907,26.186544 136.547821,26.021013 
	C135.344650,28.482914 134.535431,30.138725 133.391464,31.938160 
z"/>
<path fill="#507B40" opacity="1.000000" stroke="none" 
	d="
M154.872314,123.674088 
	C152.072128,123.796555 148.881683,123.760307 145.316162,123.557343 
	C148.121414,123.432198 151.301727,123.473778 154.872314,123.674088 
z"/>
<path fill="#703431" opacity="1.000000" stroke="none" 
	d="
M132.095062,35.994640 
	C132.137299,34.997593 132.346359,33.653431 132.834427,32.170738 
	C132.829605,33.237312 132.545761,34.442421 132.095062,35.994640 
z"/>
<path fill="#A33836" opacity="1.000000" stroke="none" 
	d="
M11.066813,131.257614 
	C11.812189,131.483917 12.734536,131.974014 13.816152,132.744934 
	C13.064875,132.524307 12.154329,132.022842 11.066813,131.257614 
z"/>
<path fill="#BC322D" opacity="1.000000" stroke="none" 
	d="
M105.280746,97.945236 
	C105.631409,97.279976 106.253197,96.513084 107.198021,95.740967 
	C106.864670,96.438362 106.208267,97.140991 105.280746,97.945236 
z"/>
<path fill="#D8251D" opacity="1.000000" stroke="none" 
	d="
M23.309788,136.943329 
	C23.509871,136.085678 23.903574,135.278137 24.545170,134.351822 
	C24.581291,134.947449 24.369520,135.661880 24.022789,136.629608 
	C23.887829,136.882904 23.503407,136.993454 23.309788,136.943329 
z"/>
<path fill="#A33836" opacity="1.000000" stroke="none" 
	d="
M20.614637,132.790787 
	C20.272427,132.567947 19.771357,132.127213 19.120325,131.478394 
	C19.465500,131.704514 19.960640,132.138702 20.614637,132.790787 
z"/>
<path fill="#65A26D" opacity="1.000000" stroke="none" 
	d="
M60.268257,151.086609 
	C60.455742,150.794403 60.954853,150.436813 61.767685,150.049896 
	C61.580902,150.354126 61.080391,150.687668 60.268257,151.086609 
z"/>
<path fill="#A33836" opacity="1.000000" stroke="none" 
	d="
M14.124693,133.294067 
	C14.493744,133.293442 15.007417,133.559723 15.725818,134.033920 
	C15.376802,134.014877 14.823059,133.787918 14.124693,133.294067 
z"/>
<path fill="#78B043" opacity="1.000000" stroke="none" 
	d="
M184.271515,126.705421 
	C184.097580,126.784882 183.732651,126.592224 183.108917,126.225342 
	C183.260239,126.178505 183.670364,126.305908 184.271515,126.705421 
z"/>
<path fill="#D3281A" opacity="1.000000" stroke="none" 
	d="
M113.852608,80.938782 
	C114.148285,81.539825 114.131561,81.948250 114.104187,82.663506 
	C111.416519,84.315849 108.739494,85.661369 105.066162,87.507645 
	C107.291023,80.576294 109.203568,74.617943 111.116104,68.659592 
	C111.883095,68.860825 112.650078,69.062057 113.417068,69.263283 
	C112.984039,70.951149 112.752831,72.725845 112.072365,74.307236 
	C110.952469,76.909821 110.784943,79.111801 113.852608,80.938782 
z"/>
<path fill="#44AA31" opacity="1.000000" stroke="none" 
	d="
M112.703613,124.214851 
	C113.759598,124.061783 114.480316,124.066040 115.577080,124.312683 
	C115.953117,124.555077 115.980652,125.042229 115.908691,125.404526 
	C111.788185,132.685211 113.223610,139.824554 114.982239,146.976913 
	C111.231384,146.796341 107.480530,146.615768 103.354645,146.283127 
	C100.535423,140.091919 100.475685,133.921661 102.039619,127.228592 
	C105.532761,125.984665 108.950554,125.178421 112.703613,124.214851 
z"/>
<path fill="#77BD29" opacity="1.000000" stroke="none" 
	d="
M169.310303,146.088074 
	C168.828979,146.113556 168.409439,146.118439 168.202194,145.631241 
	C168.327454,138.753174 168.659943,132.362305 168.992447,125.971451 
	C172.019135,125.987679 175.045837,126.003914 178.523895,126.042740 
	C179.127838,128.495102 179.181259,130.936142 179.455673,133.352081 
	C179.894211,137.212952 180.479538,141.057144 181.159637,146.062607 
	C178.293854,146.062607 174.042740,146.062607 169.310303,146.088074 
z"/>
<path fill="#4CAD31" opacity="1.000000" stroke="none" 
	d="
M115.354675,146.993561 
	C113.223610,139.824554 111.788185,132.685211 116.286209,125.385895 
	C118.178307,124.680489 119.620941,124.356003 121.063568,124.031525 
	C121.489845,124.075577 121.916115,124.119637 122.713486,124.561829 
	C123.417244,129.739655 123.594795,134.537155 124.140495,139.292389 
	C124.470177,142.165283 125.371262,144.972610 126.015610,147.809387 
	C124.295769,147.838089 122.575920,147.866791 120.425034,147.882889 
	C118.571693,147.583588 117.149399,147.296890 115.354675,146.993561 
z"/>
<path fill="#62B62C" opacity="1.000000" stroke="none" 
	d="
M145.444702,147.848297 
	C142.611115,147.541260 140.228256,147.243881 137.477081,146.552856 
	C137.419525,139.129532 137.730286,132.099884 138.041061,125.070229 
	C143.064468,125.390678 148.087875,125.711121 153.650024,126.441032 
	C154.831329,133.314911 155.473892,139.779327 156.116470,146.243744 
	C152.709473,146.781830 149.302460,147.319916 145.444702,147.848297 
z"/>
<path fill="#56B02F" opacity="1.000000" stroke="none" 
	d="
M137.891785,124.940773 
	C137.730286,132.099884 137.419525,139.129532 137.056503,146.540543 
	C133.609177,147.189011 130.214111,147.456131 126.417328,147.766312 
	C125.371262,144.972610 124.470177,142.165283 124.140495,139.292389 
	C123.594795,134.537155 123.417244,129.739655 123.032578,124.600334 
	C127.392311,124.219948 131.804047,124.199196 136.695801,124.225235 
	C137.356476,124.460457 137.545380,124.640221 137.891785,124.940773 
z"/>
<path fill="#6EBA2B" opacity="1.000000" stroke="none" 
	d="
M156.522964,146.231430 
	C155.473892,139.779327 154.831329,133.314911 154.096222,126.460159 
	C158.689743,126.036217 163.375778,126.002617 168.527130,125.970230 
	C168.659943,132.362305 168.327454,138.753174 167.992584,145.623016 
	C164.303284,146.141052 160.616379,146.180084 156.522964,146.231430 
z"/>
<path fill="#539846" opacity="1.000000" stroke="none" 
	d="
M120.635399,124.013062 
	C119.620941,124.356003 118.178307,124.680489 116.358170,125.023598 
	C115.980652,125.042229 115.953117,124.555077 115.938110,124.312157 
	C117.351143,124.044357 118.779182,124.019478 120.635399,124.013062 
z"/>
</svg>